Toy Story 3 HD 1080p

2 audios (English and Brazilian Portuguese) and 2 subtitles (English and Brazilian Portuguese)

Excelent quality! See the data about movie;

General
Unique ID                        : 282449051878679730297889802163923385712 (0xD47DB56BE6BC31057B7958030B4AFD70)
Complete name                    : D:\Descartáveis\Toy Story 3 HD\Toy Story 3.mkv
Format                           : Matroska
File size                        : 3.96 GiB
Duration                         : 1h 43mn
Overall bit rate                 : 5 504 Kbps
Writing application              : HandBrake 0.9.5
Writing library                  : libmkv 0.6.4.1

Video
ID                               : 1
Format                           : AVC
Format/Info                      : Advanced Video Codec
Format profile                   : High@L4.0
Format settings, CABAC           : Yes
Format settings, ReFrames        : 4 frames
Codec ID                         : V_MPEG4/ISO/AVC
Duration                         : 1h 43mn
Bit rate                         : 4 114 Kbps
Width                            : 1 920 pixels
Height                           : 1 072 pixels
Display aspect ratio             : 16:9
Original display aspect ratio    : 16:9
Frame rate mode                  : Variable
Frame rate                       : 23.976 fps
Color space                      : YUV
Chroma subsampling               : 4:2:0
Bit depth                        : 8 bits
Scan type                        : Progressive
Bits/(Pixel*Frame)               : 0.083
Stream size                      : 2.96 GiB (75%)
Writing library                  : x264 core 112
Encoding settings                : cabac=1 / ref=3 / deblock=1:0:0 / analyse=0x3:0x113 / me=hex / subme=7 / psy=1 / psy_rd=1.00:0.00 / mixed_ref=1 / me_range=16 / chroma_me=1 / trellis=1 / 8x8dct=1 / cqm=0 / deadzone=21,11 / fast_pskip=1 / chroma_qp_offset=-2 / threads=3 / sliced_threads=0 / nr=0 / decimate=1 / interlaced=0 / constrained_intra=0 / bframes=3 / b_pyramid=2 / b_adapt=2 / b_bias=0 / direct=1 / weightb=1 / open_gop=0 / weightp=2 / keyint=240 / keyint_min=23 / scenecut=40 / intra_refresh=0 / rc_lookahead=50 / rc=crf / mbtree=1 / crf=20.0 / qcomp=0.60 / qpmin=3 / qpmax=51 / qpstep=4 / ip_ratio=1.40 / aq=1:1.00
Language                         : English
Color primaries                  : BT.709-5, BT.1361, IEC 61966-2-4, SMPTE RP177
Transfer characteristics         : BT.709-5, BT.1361
Matrix coefficients              : BT.709-5, BT.1361, IEC 61966-2-4 709, SMPTE RP177

Audio #1
ID                               : 2
Format                           : AC-3
Format/Info                      : Audio Coding 3
Mode extension                   : CM (complete main)
Codec ID                         : A_AC3
Duration                         : 1h 43mn
Bit rate mode                    : Constant
Bit rate                         : 640 Kbps
Channel(s)                       : 6 channels
Channel positions                : Front: L C R, Side: L R, LFE
Sampling rate                    : 48.0 KHz
Bit depth                        : 16 bits
Compression mode                 : Lossy
Stream size                      : 472 MiB (12%)
Language                         : English

Audio #2
ID                               : 3
Format                           : AC-3
Format/Info                      : Audio Coding 3
Mode extension                   : CM (complete main)
Codec ID                         : A_AC3
Duration                         : 1h 43mn
Bit rate mode                    : Constant
Bit rate                         : 640 Kbps
Channel(s)                       : 6 channels
Channel positions                : Front: L C R, Side: L R, LFE
Sampling rate                    : 48.0 KHz
Bit depth                        : 16 bits
Compression mode                 : Lossy
Stream size                      : 472 MiB (12%)
Language                         : Portuguese

Menu
00:00:00.000                     : Chapter 1
00:04:53.569                     : Chapter 2
00:06:20.281                     : Chapter 3
00:11:37.431                     : Chapter 4
00:15:17.212                     : Chapter 5
00:18:34.260                     : Chapter 6
00:19:23.943                     : Chapter 7
00:26:17.197                     : Chapter 8
00:28:59.484                     : Chapter 9
00:31:47.902                     : Chapter 10
00:33:22.413                     : Chapter 11
00:35:50.144                     : Chapter 12
00:37:30.203                     : Chapter 13
00:40:11.405                     : Chapter 14
00:41:12.717                     : Chapter 15
00:43:37.578                     : Chapter 16
00:44:49.361                     : Chapter 17
00:48:19.622                     : Chapter 18
00:52:28.175                     : Chapter 19
00:53:52.008                     : Chapter 20
00:57:12.083                     : Chapter 21
00:58:20.818                     : Chapter 22
01:01:10.113                     : Chapter 23
01:02:06.753                     : Chapter 24
01:02:57.136                     : Chapter 25
01:06:35.162                     : Chapter 26
01:11:21.885                     : Chapter 27
01:15:57.425                     : Chapter 28
01:17:35.992                     : Chapter 29
01:19:43.371                     : Chapter 30
01:23:02.120                     : Chapter 31
01:24:59.789                     : Chapter 32
01:28:15.776                     : Chapter 33
01:34:18.267                     : Chapter 34
01:43:02.854                     : Chapter 35

